# xmcd CD database file
#
# Track frame offsets:
#	182
#	25787
#	49190
#	74695
#	99610
#	119020
#	144680
#	165995
#	181807
#	201225
#	231695
#
# Disc length: 3293 seconds
#
# Revision: 0
# Processed by: cddbd v1.4PL0 Copyright (c) Steve Scherf et al.
# Submitted via: CDex 1.50beta10
#
DISCID=a50cdb0b
DTITLE=Jimmy Johnson - Livin' The Life
DYEAR=1900
DGENRE=Blues
TTITLE0=I Used To Be A Millionnaire
TTITLE1=You Don't Have To Go
TTITLE2=Drowning On Dry Land
TTITLE3=Something You Got
TTITLE4=Livin' The Life
TTITLE5=The Sky Is Crying
TTITLE6=Bring It On Home To Me
TTITLE7=Pretty Baby
TTITLE8=Born Under A Bad Sign
TTITLE9=Quick Sand
TTITLE10=Where There's A Will, There's A Way
EXTD=
EXTT0=
EXTT1=
EXTT2=
EXTT3=
EXTT4=
EXTT5=
EXTT6=
EXTT7=
EXTT8=
EXTT9=
EXTT10=
PLAYORDER=
